<svg width="60" height="70" viewBox="0 0 60 70" fill="none" xmlns="http://www.w3.org/2000/svg">
<path d="M34.1337 0C35.0347 0 35.7277 0.735 35.7277 1.61V12.88C35.7277 19.285 40.9604 24.535 47.302 24.57C49.9356 24.57 52.0149 24.605 53.6089 24.605L54.1993 24.6024C55.2646 24.5943 56.6988 24.57 57.9406 24.57C58.8069 24.57 59.5 25.27 59.5 26.145V54.285C59.5 62.965 52.5347 70 43.9406 70H16.3564C7.34653 70 0 62.615 0 53.515V15.785C0 7.105 7 0 15.6287 0H34.1337ZM37.8416 45.15H18.9901C17.5693 45.15 16.3911 46.305 16.3911 47.74C16.3911 49.175 17.5693 50.365 18.9901 50.365H37.8416C39.2624 50.365 40.4406 49.175 40.4406 47.74C40.4406 46.305 39.2624 45.15 37.8416 45.15ZM30.703 27.65H18.9901C17.5693 27.65 16.3911 28.84 16.3911 30.275C16.3911 31.71 17.5693 32.865 18.9901 32.865H30.703C32.1238 32.865 33.302 31.71 33.302 30.275C33.302 28.84 32.1238 27.65 30.703 27.65ZM40.7774 3.171C40.7774 1.6625 42.5898 0.9135 43.6259 2.002C47.372 5.936 53.918 12.8135 57.5774 16.6565C58.5893 17.717 57.8477 19.4775 56.3888 19.481C53.5403 19.4915 50.1824 19.481 47.767 19.4565C43.9344 19.4565 40.7774 16.268 40.7774 12.397V3.171Z" fill="#57DAF0"/>
</svg>
