<svg width="90" height="71" viewBox="0 0 90 71" fill="none" xmlns="http://www.w3.org/2000/svg">
<path d="M76.336 1.26604e-05H13.033C7.90409 -0.00836569 3.73935 4.14276 3.73097 9.27188C3.73027 9.68923 3.75768 10.1061 3.81318 10.5196C3.94514 11.5393 4.8788 12.2589 5.89869 12.127C6.14708 12.0949 6.38638 12.013 6.6023 11.8861C7.42373 11.4082 8.35914 11.1612 9.30938 11.1712H22.5659C24.9582 11.1778 27.0837 12.6993 27.861 14.9618L28.1774 15.9821C29.4586 19.7745 33.0109 22.3313 37.0138 22.3421H80.0599C81.0363 22.343 81.9953 22.5997 82.8415 23.0869C83.1274 23.2536 83.4526 23.3409 83.7835 23.3402C84.8118 23.3402 85.6454 22.5065 85.6454 21.4783V9.30924C85.6454 4.16789 81.4775 1.26604e-05 76.336 1.26604e-05Z" fill="#FFB110"/>
<path d="M84.7256 19.8773C83.3093 19.0519 81.6991 18.6176 80.0597 18.6186H37.0136C34.6213 18.612 32.4958 17.0905 31.7185 14.828L31.4021 13.8077C30.1209 10.0153 26.5686 7.45851 22.5657 7.44769H9.30922C7.70948 7.43215 6.13522 7.84758 4.7514 8.6505C1.81671 10.2928 -0.000872431 13.3937 3.14158e-07 16.7569V61.4415C3.14158e-07 66.5828 4.16788 70.7507 9.30922 70.7507H80.0597C85.201 70.7507 89.3689 66.5828 89.3689 61.4415V27.928C89.3804 24.605 87.6077 21.5315 84.7256 19.8773Z" fill="#FFD070"/>
</svg>
