<svg width="70" height="70" viewBox="0 0 70 70" fill="none" xmlns="http://www.w3.org/2000/svg">
<path d="M50.1684 0C62.0309 0 70 8.32339 70 20.7085V49.2915C70 61.6766 62.0309 70 50.1649 70H19.8316C7.96913 70 0 61.6766 0 49.2915V20.7085C0 8.32339 7.96913 0 19.8316 0H50.1684ZM54.0281 36.9252C50.2763 34.5846 47.3797 37.8715 46.5984 38.9226C45.8452 39.9376 45.1976 41.0573 44.5148 42.177C42.8466 44.9401 40.9355 48.1259 37.6271 49.9788C32.8195 52.6409 29.1697 50.1883 26.5442 48.404C25.5587 47.7394 24.6014 47.1109 23.6476 46.6919C21.2966 45.677 19.1813 46.8328 16.0419 50.8204C14.3948 52.9045 12.7617 54.9706 11.1075 57.0294C10.1186 58.2611 10.3544 60.161 11.6883 60.9845C13.8176 62.2957 16.415 63 19.3503 63H48.8473C50.5121 63 52.1803 62.7724 53.7711 62.2523C57.354 61.082 60.1978 58.402 61.683 54.8622C62.936 51.886 63.5448 48.274 62.3728 45.2688C61.9822 44.2719 61.3979 43.3437 60.5779 42.5273C58.4275 40.3927 56.4178 38.3989 54.0281 36.9252ZM22.746 14C17.9207 14 14 17.9261 14 22.75C14 27.5739 17.9207 31.5 22.746 31.5C27.5677 31.5 31.492 27.5739 31.492 22.75C31.492 17.9261 27.5677 14 22.746 14Z" fill="#5694FF"/>
</svg>
